<svg id="Layer_1" data-name="Layer 1" xmlns="http://www.w3.org/2000/svg" viewBox="0 0 72.59 76.35"><defs><style>.cls-1{fill:#231f20;}.cls-2{fill:#303f9f;}.cls-3{fill:#fff;}</style></defs><path class="cls-1" d="M52.45,49.49C49,56.17,41.06,62.12,32.25,62.12A21.75,21.75,0,0,1,26.2,19.47l-1.32-5.86a27.75,27.75,0,0,0,7.37,54.51c11.74,0,21.52-10.2,25.19-19.81ZM56.27,71.4H9.89v4.95H56.27Zm-18.09-.3a5.1,5.1,0,0,0-5.1-5.1h0A5.1,5.1,0,0,0,28,71.1v.3h10.2Z"/><path class="cls-2" d="M55.45,49.49C52,56.17,44.06,62.12,35.25,62.12A21.75,21.75,0,0,1,29.2,19.47l-1.32-5.86a27.75,27.75,0,0,0,7.37,54.51c11.74,0,21.52-10.2,25.19-19.81ZM59.27,71.4H12.89v4.95H59.27Zm-18.09-.3a5.1,5.1,0,0,0-5.1-5.1h0A5.1,5.1,0,0,0,31,71.1v.3h10.2Z"/><path class="cls-2" d="M38.49,47l1.08,4.88,32.07-7.11-1.09-4.88Z"/><rect class="cls-2" x="32.35" y="6.15" width="9.74" height="32.26" transform="translate(-3.94 8.58) rotate(-12.49)"/><rect class="cls-2" x="29.54" y="1.21" width="6.85" height="3.67" transform="translate(0.12 7.2) rotate(-12.49)"/><rect class="cls-2" x="38.06" y="39.67" width="6.85" height="3.67" transform="translate(-8 9.96) rotate(-12.49)"/><path class="cls-2" d="M42,14.36a22.07,22.07,0,0,1,8.34,2.82,20.09,20.09,0,0,1,6.54,6.14,22.68,22.68,0,0,1,3.34,8.3,27.27,27.27,0,0,1,.23,8.78A60,60,0,0,0,58.7,32a27.68,27.68,0,0,0-3.48-7.56,23.54,23.54,0,0,0-5.74-6A38.63,38.63,0,0,0,42,14.36Z"/><path class="cls-3" d="M39.37,17.72c.76,2.91,1.5,5.83,2.2,8.76.36,1.46.78,2.91,1,4.39a35.54,35.54,0,0,1,.49,4.51l-.1,0a34.32,34.32,0,0,1-1.37-4.32c-.37-1.46-.58-3-.83-4.44q-.8-4.44-1.52-8.9Z"/></svg>