<svg id="Layer_1" data-name="Layer 1" xmlns="http://www.w3.org/2000/svg" viewBox="0 0 66.67 76.35"><defs><style>.cls-1{fill:#303f9f;}.cls-2{fill:#fff;}</style></defs><path class="cls-1" d="M49.53,49.49c-3.4,6.68-11.39,12.63-20.2,12.63a21.75,21.75,0,0,1-6-42.65L22,13.61a27.75,27.75,0,0,0,7.36,54.51c11.75,0,21.53-10.2,25.19-19.81ZM53.35,71.4H7v4.95H53.35Zm-18.08-.3a5.1,5.1,0,0,0-5.1-5.1h0a5.1,5.1,0,0,0-5.1,5.1v.3h10.2Z"/><path class="cls-1" d="M32.57,47l1.08,4.88,32.07-7.11-1.08-4.88Z"/><rect class="cls-1" x="26.43" y="6.15" width="9.74" height="32.26" transform="translate(-4.08 7.3) rotate(-12.49)"/><rect class="cls-1" x="23.62" y="1.21" width="6.85" height="3.67" transform="translate(-0.02 5.92) rotate(-12.49)"/><rect class="cls-1" x="32.14" y="39.67" width="6.85" height="3.67" transform="translate(-8.14 8.68) rotate(-12.49)"/><path class="cls-1" d="M36.08,14.36a22.19,22.19,0,0,1,8.34,2.82A20.06,20.06,0,0,1,51,23.32a22.5,22.5,0,0,1,3.34,8.3,26.71,26.71,0,0,1,.23,8.78A59.94,59.94,0,0,0,52.79,32a27.41,27.41,0,0,0-3.49-7.56,23.33,23.33,0,0,0-5.73-6A38.93,38.93,0,0,0,36.08,14.36Z"/><path class="cls-2" d="M33.46,17.72q1.14,4.37,2.2,8.76c.36,1.46.78,2.91,1,4.39a32.23,32.23,0,0,1,.49,4.51l-.1,0a34.26,34.26,0,0,1-1.36-4.32c-.38-1.46-.58-3-.84-4.44q-.79-4.44-1.51-8.9Z"/></svg>