<svg id="Layer_1" data-name="Layer 1" xmlns="http://www.w3.org/2000/svg" viewBox="0 0 367.18 420.27"><defs><style>.cls-1{fill:#231f20;}.cls-2{fill:#303f9f;}.cls-3{fill:#fff;}</style></defs><path class="cls-1" d="M260.1,274.63c-18.47,36.22-61.78,68.49-109.56,68.49a118,118,0,0,1-32.77-231.34L110.6,80C46.92,97.55,0,155.94,0,225.12c0,83,67.53,150.54,150.54,150.54,63.7,0,116.76-55.34,136.62-107.47Zm20.72,118.83H29.31v26.81H280.82Zm-98.1-1.64a27.66,27.66,0,0,0-27.66-27.66h0a27.66,27.66,0,0,0-27.66,27.66v1.64h55.32Z"/><path class="cls-2" d="M279.37,265.63c-18.46,36.22-61.78,68.49-109.56,68.49A118,118,0,0,1,137,102.78L129.87,71C66.19,88.55,19.27,146.94,19.27,216.12c0,83,67.53,150.54,150.54,150.54,63.7,0,116.76-55.34,136.62-107.47Zm20.72,118.83H48.58v26.81H300.09ZM202,382.82a27.66,27.66,0,0,0-27.66-27.66h0a27.66,27.66,0,0,0-27.66,27.66v1.64H202Z"/><path class="cls-2" d="M187.38,252.19l5.87,26.47,173.93-38.53-5.87-26.47Z"/><rect class="cls-2" x="154.1" y="30.53" width="52.85" height="174.97" transform="translate(-21.26 41.84) rotate(-12.49)"/><rect class="cls-2" x="138.85" y="3.78" width="37.14" height="19.93" transform="translate(0.75 34.38) rotate(-12.49)"/><rect class="cls-2" x="185.05" y="212.32" width="37.14" height="19.93" transform="translate(-43.26 49.31) rotate(-12.49)"/><path class="cls-2" d="M206.39,75.09a119.49,119.49,0,0,1,45.26,15.25,109.11,109.11,0,0,1,35.48,33.31,121.32,121.32,0,0,1,18.18,45,146.31,146.31,0,0,1,1.12,47.67c-2.29-15.68-4.92-31-9.35-45.66a150.42,150.42,0,0,0-18.89-41A128.33,128.33,0,0,0,247,97.41C234.76,88.41,220.93,81.36,206.39,75.09Z"/><path class="cls-3" d="M192.19,93.3c2.1,7.89,4.06,15.81,6.09,23.72l3,11.88,2.88,11.89q1.47,5.94,3,11.87c1,4,1.86,7.94,2.54,12l.95,6.05c.26,2,.58,4,.79,6.08.47,4.07.83,8.16.91,12.31l-.53.12c-1.6-3.84-2.91-7.73-4.12-11.64-.63-2-1.15-3.92-1.73-5.89l-1.57-5.92c-1-4-1.82-8-2.49-12s-1.33-8.06-2-12.08l-2.16-12.05-2.08-12.07c-1.32-8-2.72-16.09-4-24.16Z"/></svg>